<svg viewBox="0 0 900 400" xmlns="http://www.w3.org/2000/svg" role="img" aria-label="Three analog clock faces showing the system snapshots 12:00, 5:20, and 2:42 with their hour and minute hand angles">
<rect width="900" height="400" fill="#ffffff"/>
<circle cx="150" cy="180" r="130" fill="#ffffff" stroke="#1f2328" stroke-width="3"/>
<line x1="150.0" y1="68.0" x2="150.0" y2="50.0" stroke="#1f2328" stroke-width="4"/>
<line x1="206.0" y1="83.0" x2="215.0" y2="67.4" stroke="#1f2328" stroke-width="2.5"/>
<line x1="247.0" y1="124.0" x2="262.6" y2="115.0" stroke="#1f2328" stroke-width="2.5"/>
<line x1="262.0" y1="180.0" x2="280.0" y2="180.0" stroke="#1f2328" stroke-width="4"/>
<line x1="247.0" y1="236.0" x2="262.6" y2="245.0" stroke="#1f2328" stroke-width="2.5"/>
<line x1="206.0" y1="277.0" x2="215.0" y2="292.6" stroke="#1f2328" stroke-width="2.5"/>
<line x1="150.0" y1="292.0" x2="150.0" y2="310.0" stroke="#1f2328" stroke-width="4"/>
<line x1="94.0" y1="277.0" x2="85.0" y2="292.6" stroke="#1f2328" stroke-width="2.5"/>
<line x1="53.0" y1="236.0" x2="37.4" y2="245.0" stroke="#1f2328" stroke-width="2.5"/>
<line x1="38.0" y1="180.0" x2="20.0" y2="180.0" stroke="#1f2328" stroke-width="4"/>
<line x1="53.0" y1="124.0" x2="37.4" y2="115.0" stroke="#1f2328" stroke-width="2.5"/>
<line x1="94.0" y1="83.0" x2="85.0" y2="67.4" stroke="#1f2328" stroke-width="2.5"/>
<line x1="150" y1="180" x2="150.0" y2="115.0" stroke="#1f2328" stroke-width="6" stroke-linecap="round"/>
<line x1="150" y1="180" x2="150.0" y2="76.0" stroke="#1f2328" stroke-width="3" stroke-linecap="round"/>
<circle cx="150" cy="180" r="6" fill="#1f2328"/>
<text x="150" y="345" font-family="Helvetica, Arial, sans-serif" font-size="22" fill="#1f2328" text-anchor="middle">12:00</text>
<text x="150" y="370" font-family="Helvetica, Arial, sans-serif" font-size="15" fill="#59636e" text-anchor="middle">hour=0&#176;, minute=0&#176;</text>

<circle cx="450" cy="180" r="130" fill="#ffffff" stroke="#1f2328" stroke-width="3"/>
<line x1="450.0" y1="68.0" x2="450.0" y2="50.0" stroke="#1f2328" stroke-width="4"/>
<line x1="506.0" y1="83.0" x2="515.0" y2="67.4" stroke="#1f2328" stroke-width="2.5"/>
<line x1="547.0" y1="124.0" x2="562.6" y2="115.0" stroke="#1f2328" stroke-width="2.5"/>
<line x1="562.0" y1="180.0" x2="580.0" y2="180.0" stroke="#1f2328" stroke-width="4"/>
<line x1="547.0" y1="236.0" x2="562.6" y2="245.0" stroke="#1f2328" stroke-width="2.5"/>
<line x1="506.0" y1="277.0" x2="515.0" y2="292.6" stroke="#1f2328" stroke-width="2.5"/>
<line x1="450.0" y1="292.0" x2="450.0" y2="310.0" stroke="#1f2328" stroke-width="4"/>
<line x1="394.0" y1="277.0" x2="385.0" y2="292.6" stroke="#1f2328" stroke-width="2.5"/>
<line x1="353.0" y1="236.0" x2="337.4" y2="245.0" stroke="#1f2328" stroke-width="2.5"/>
<line x1="338.0" y1="180.0" x2="320.0" y2="180.0" stroke="#1f2328" stroke-width="4"/>
<line x1="353.0" y1="124.0" x2="337.4" y2="115.0" stroke="#1f2328" stroke-width="2.5"/>
<line x1="394.0" y1="83.0" x2="385.0" y2="67.4" stroke="#1f2328" stroke-width="2.5"/>
<line x1="450" y1="180" x2="472.2" y2="241.1" stroke="#1f2328" stroke-width="6" stroke-linecap="round"/>
<line x1="450" y1="180" x2="540.1" y2="232.0" stroke="#1f2328" stroke-width="3" stroke-linecap="round"/>
<circle cx="450" cy="180" r="6" fill="#1f2328"/>
<text x="450" y="345" font-family="Helvetica, Arial, sans-serif" font-size="22" fill="#1f2328" text-anchor="middle">5:20</text>
<text x="450" y="370" font-family="Helvetica, Arial, sans-serif" font-size="15" fill="#59636e" text-anchor="middle">hour=160&#176;, minute=120&#176;</text>

<circle cx="750" cy="180" r="130" fill="#ffffff" stroke="#1f2328" stroke-width="3"/>
<line x1="750.0" y1="68.0" x2="750.0" y2="50.0" stroke="#1f2328" stroke-width="4"/>
<line x1="806.0" y1="83.0" x2="815.0" y2="67.4" stroke="#1f2328" stroke-width="2.5"/>
<line x1="847.0" y1="124.0" x2="862.6" y2="115.0" stroke="#1f2328" stroke-width="2.5"/>
<line x1="862.0" y1="180.0" x2="880.0" y2="180.0" stroke="#1f2328" stroke-width="4"/>
<line x1="847.0" y1="236.0" x2="862.6" y2="245.0" stroke="#1f2328" stroke-width="2.5"/>
<line x1="806.0" y1="277.0" x2="815.0" y2="292.6" stroke="#1f2328" stroke-width="2.5"/>
<line x1="750.0" y1="292.0" x2="750.0" y2="310.0" stroke="#1f2328" stroke-width="4"/>
<line x1="694.0" y1="277.0" x2="685.0" y2="292.6" stroke="#1f2328" stroke-width="2.5"/>
<line x1="653.0" y1="236.0" x2="637.4" y2="245.0" stroke="#1f2328" stroke-width="2.5"/>
<line x1="638.0" y1="180.0" x2="620.0" y2="180.0" stroke="#1f2328" stroke-width="4"/>
<line x1="653.0" y1="124.0" x2="637.4" y2="115.0" stroke="#1f2328" stroke-width="2.5"/>
<line x1="694.0" y1="83.0" x2="685.0" y2="67.4" stroke="#1f2328" stroke-width="2.5"/>
<line x1="750" y1="180" x2="814.2" y2="169.8" stroke="#1f2328" stroke-width="6" stroke-linecap="round"/>
<line x1="750" y1="180" x2="650.5" y2="210.4" stroke="#1f2328" stroke-width="3" stroke-linecap="round"/>
<circle cx="750" cy="180" r="6" fill="#1f2328"/>
<text x="750" y="345" font-family="Helvetica, Arial, sans-serif" font-size="22" fill="#1f2328" text-anchor="middle">2:42</text>
<text x="750" y="370" font-family="Helvetica, Arial, sans-serif" font-size="15" fill="#59636e" text-anchor="middle">hour=81&#176;, minute=252&#176;</text>
</svg>